<svg xmlns="http://www.w3.org/2000/svg" viewBox="0 0 512 512"><defs><linearGradient id="bg" x1="0" y1="0" x2="1" y2="1"><stop stop-color="#20242b"/><stop offset="1" stop-color="#2f3742"/></linearGradient><linearGradient id="bell" x1="0" y1="0" x2="0" y2="1"><stop stop-color="#4b515b"/><stop offset=".5" stop-color="#20242b"/><stop offset="1" stop-color="#0d0f12"/></linearGradient><filter id="s"><feDropShadow dx="0" dy="10" stdDeviation="10" flood-opacity=".45"/></filter></defs><rect width="512" height="512" rx="92" fill="url(#bg)"/><rect x="18" y="18" width="476" height="476" rx="78" fill="none" stroke="#3b82f6" stroke-width="6"/><g filter="url(#s)"><path d="M173 205c-3-72 31-112 83-112s86 40 83 112" fill="none" stroke="#111318" stroke-width="31" stroke-linecap="round"/><path d="M164 203c-25 18-38 47-38 88 0 91 77 143 129 143s129-52 129-143c0-41-13-70-38-88-16-12-34-18-52-18H216c-18 0-36 6-52 18z" fill="url(#bell)" stroke="#b5bac2" stroke-width="5"/><text x="256" y="300" text-anchor="middle" font-family="Arial,Helvetica,sans-serif" font-size="112" font-weight="900" letter-spacing="-7" fill="#f5f5f2">ABF</text></g></svg>